<svg version="1.2" xmlns="http://www.w3.org/2000/svg" viewBox="0 0 1280 304" width="1280" height="304">
	<style>
		.s0 { fill: #000000 } 
	</style>
	<g>
		<path class="s0" d="m707.8 20.7l-11.8 11.8v50.6c0 39.1-0.3 50.8-1.2 51.7-0.9 0.9-1.5 6.5-1.8 17.5l-0.5 16.2-3.4 0.3c-3.1 0.3-4.2-0.4-12.8-9l-9.3-9.3v-18c0-17.7 0-18-2.2-19-1.7-0.7-2.4-2-2.6-4.7-0.2-2.6-0.9-3.9-2.3-4.3-1.6-0.5-1.9-1.6-1.9-6 0-3.8-0.4-5.4-1.5-5.9-1.1-0.4-1.5-2-1.5-5.6v-5h-4.5-4.5v4.9c0 3.1-0.5 5.3-1.5 6.1-0.9 0.8-1.5 3-1.5 5.7 0 3.6-0.4 4.6-2 5-1.9 0.5-2 1.6-2.2 22.2l-0.3 21.6-2.7 0.3c-2.5 0.3-2.8 0.7-2.8 4.1 0 4.1-1.4 6.1-4.4 6.1-1.1 0-4.1 2.1-6.7 4.6-7.8 7.7-7.9 7.4-7.9-20 0-22.2-0.1-23.4-1.9-23.9-1.1-0.2-2.1-1.5-2.3-2.8-0.3-2.1-0.8-2.4-4.8-2.4-3.9 0-4.5 0.3-4.8 2.3-0.2 1.3-1.4 2.7-2.7 3.2-2.4 0.9-2.4 1.2-2.7 14.7l-0.3 13.8-5.4 0.3c-6.5 0.4-7.1-0.3-7.1-8.1 0-5.6 0-5.7-2.9-5.7-2 0-3.2 0.6-3.5 1.8-0.3 0.9-1.6 2.2-2.8 2.7-1.8 0.8-2.4 2-2.6 5.2l-0.3 4.3h-8.7-8.8l-4.8-4.9c-3.8-3.9-4.9-5.7-5.3-9.2-0.4-3.1-1.6-5.5-3.9-8.2-2-2.1-3.4-4.8-3.4-6.2 0-2.1-0.5-2.5-3-2.5-2.3 0-3.3-0.6-4-2.5-0.8-2.2-1.6-2.5-5.5-2.5-3.9 0-4.5 0.3-4.5 2 0 1.2-1 2.4-2.4 3-2.4 0.9-2.4 0.9-1.9 12.3 0.6 12.2-0.2 15.7-3.7 15.7-1.7 0-2 0.7-2 5.4 0 5.7-1.7 8.6-8 14.3-4.9 4.4-4.9 4.3-5.2-25l-0.3-27.2-6.3-0.5c-6.6-0.5-8.2-1.6-8.2-5.8 0-2.1-0.3-2.2-8.8-2.2h-8.8l-4.4 4.5-4.5 4.6-0.5 19.7-0.5 19.7-4.2 0.6c-2.3 0.3-5 1.2-6 2.1-1 0.9-2.9 1.8-4.3 2-2.3 0.3-2.5 0.8-2.8 6l-0.3 5.8h-8.9-8.9l-0.3-11.8-0.3-11.7-5.2-0.3-5.3-0.3v-35.4c0-19.4-0.3-36-0.6-36.9-0.5-1.3-2.3-1.6-9.1-1.6-8.1 0-8.6 0.1-10.7 2.7-1.8 2.3-2.2 4.5-2.6 14.3l-0.5 11.5h-5-5l-0.3-33.3-0.2-33.2h-6.1c-8.6 0-9.9-0.9-9.9-7.3v-5.2l-10 10-10 10v50.7c0 49.1-0.1 50.8-1.9 51.8-2.7 1.4-9.4 1.3-10.9-0.2-0.7-0.7-1.2-4.4-1.2-9.4 0-6.4-0.3-8.3-1.5-8.8-1.2-0.4-1.5-3-1.5-14 0-14.1-0.2-14.6-4.9-14.6-1 0-2.6-0.9-3.6-2-1.5-1.7-3.1-2-9.2-2-11.3 0-11.3-0.1-11.3 21.9 0 9.9-0.3 18.6-0.6 19.5-0.5 1.2-2 1.6-6 1.6h-5.4v8.4c0 6-0.4 8.7-1.4 9.5-0.9 0.8-4.3 1.1-9.3 0.9l-7.8-0.3-0.5-40c-0.3-22-0.7-40.1-0.8-40.3-0.1-0.1-4.6-0.2-10.1-0.2h-9.8l-0.6 2.7c-0.3 1.6-1.5 3.2-2.9 3.8l-2.3 1-0.3 39.7-0.2 39.7-2.3 0.3c-1.7 0.2-2.3 1.1-2.7 4.3l-0.5 4h-6.5-6.5l-0.3-6.7c-0.3-6-0.5-6.7-2.5-7-2.1-0.3-2.2-0.9-2.5-10.1-0.3-9.4-0.3-9.7-2.6-9.7-2.5 0-3.6-1.7-3.6-5.5 0-1.7-0.6-2.5-2.2-2.7-1.7-0.2-2.4-1.2-2.8-3.3-0.5-2.8-0.8-3-5.8-3.3-4.7-0.3-5.4 0-5.9 1.7-0.4 1.4-1.5 2.1-4.2 2.3l-3.6 0.3-0.3 9.2c-0.3 9.1-0.3 9.3-2.9 9.9-1.4 0.4-3.8 0.3-5.2-0.2-2.5-0.9-2.6-1.2-2.9-11.2l-0.3-10.2h-4.5c-3.3 0-5.4 0.7-7.8 2.5-2.5 1.9-4.5 2.5-8.4 2.5h-5.2v16.7c0 9.3-0.4 17.3-0.8 17.9-0.4 0.6-1.7 1.4-2.9 1.8-1.6 0.5-2.3 1.5-2.3 3.2v2.4h-12-12v-20.1c0-18.6-0.2-20.3-2-22.6-1.1-1.4-2-3.2-2-3.9 0-1-1.4-1.4-4.5-1.4-3.9 0-4.5 0.3-4.5 2 0 1.3-1 2.4-2.5 3-1.5 0.6-2.5 1.7-2.5 2.9 0 1.1-0.4 2.3-1 2.6-0.6 0.4-1 7.5-1 18 0 19.6-0.3 20.6-6.8 20.4-8.1-0.2-8.6-0.7-9.2-8.4l-0.5-7-8.5-0.5-8.5-0.5-0.3-25.9c-0.2-23.9-0.4-26.1-2.1-27.7-1-1-2.1-2.2-2.2-2.8-0.2-0.5-2.2-1.1-4.4-1.3-3.3-0.2-4.2 0.1-5 1.9-0.5 1.2-1.9 2.4-3.2 2.8-2.2 0.5-2.3 0.8-2.5 17.3l-0.3 16.7-5 0.5-5 0.5-0.3 16.3c-0.2 16-0.3 16.3-2.6 17.3-1.7 0.8-2.9 0.8-4.5 0-2-1.1-2.1-1.8-2.1-22.1v-21h-3.5c-2.5 0-3.5 0.4-3.5 1.6 0 0.9-0.9 1.8-2 2.1-1.9 0.5-2 1.4-2 17.7 0 19.9-0.3 21.6-3.6 21.6h-2.4v69 69h640 640v-86-86h-6.5-6.5l-0.2 16.7-0.3 16.8-7.9 0.3c-5.7 0.2-8.2-0.1-8.7-1-0.5-0.7-0.9-15.6-0.9-33.1v-31.7h-4.8c-4.1 0-5.3 0.5-8 3.3l-3.2 3.2-0.2 18.5-0.3 18.5-2.6 0.3c-3.7 0.4-7.7 5-8.1 9.2-0.3 3-0.7 3.5-2.8 3.5h-2.5l-0.3-20.8-0.2-20.7h-4.4c-5.5 0-7.4 2-7.8 8.5l-0.3 5-6.7 0.3-6.8 0.3v-18.6c0-16.8-0.2-18.6-1.7-19.2-1-0.4-2.5-1.6-3.4-2.7-1.9-2.3-4.9-1.6-4.9 1.3 0 1.4-0.9 2.1-3.5 2.5l-3.6 0.7 0.2 36c0.1 19.7-0.1 36.2-0.5 36.6-1 1.1-17.8 1.7-22.1 0.9l-3.4-0.7-0.3-12.7-0.3-12.7-4-0.5-4-0.5-0.5-11.5-0.5-11.5-7.7-0.3-7.8-0.3v22.6 22.5h-3.9c-2.6 0-4.1-0.5-4.5-1.6-0.3-0.9-0.6-6.4-0.6-12.4 0-12.7-0.4-13.3-9.4-14l-6.1-0.5-0.3-13.3-0.3-13.2h-5.4-5.5v14.3c0 12-0.3 14.7-1.7 16.7-1.1 1.6-2 5.1-2.3 9.5l-0.5 7-6.2 0.3-6.2 0.3-0.3-14.8-0.3-14.8-5.2-0.3c-5-0.3-5.2-0.2-5.5 2.5-0.3 2.5-0.8 2.9-4.8 3.3l-4.5 0.5-0.3 11.7-0.3 11.8h-5.9c-7.1 0-6.9 0.5-7.3-15.5l-0.2-11-4.1-0.3c-3.2-0.2-4.8 0.2-7.2 2.2-2.4 2.1-4.1 2.6-8.4 2.6-6.3 0-8.8 1.9-8.8 6.6 0 4.7-1.1 5.5-7.1 5.2l-5.4-0.3-0.5-13-0.5-13-8.7-0.3-8.7-0.3-0.3 8.3-0.3 8.3-7 0.5-7 0.5-0.5 11.5-0.5 11.5-8.3 0.3c-9.3 0.3-11.2-0.5-11.2-4.7 0-1.9-1.4-4.1-4.5-7.1-4.1-4-4.5-4.8-4.5-9.2v-4.8h-6-6v7.3c0 6.4-0.3 7.6-2.3 9.5-3.7 3.5-8.8 3-12.6-1.3-2.6-3-3.1-4.4-3.1-8.8 0-6.3-0.7-7.4-4.5-7.9l-3-0.3-0.3-13.8-0.3-13.7h-6.9-7l-0.2 31.2-0.3 31.3-6.7 0.3-6.6 0.3-0.4-14-0.3-14-3-3.1c-2.8-2.9-3-3.7-3.3-12.3-0.2-5.1-0.9-9.8-1.4-10.5-0.6-0.6-3.2-1.2-5.9-1.2h-4.9v16.8 16.8l-3.3 3.2c-1.8 1.8-3.6 2.9-4 2.6-0.4-0.4-0.7-4.3-0.7-8.6 0-7.5-0.1-7.9-2.5-8.8-1.4-0.5-3-2.1-3.5-3.5-1.5-3.8-7.8-3.4-9.3 0.7-0.3 0.9-1.6 1.8-2.9 2-2.3 0.3-2.3 0.5-2.8 16.8l-0.5 16.5h-7-7l-0.5-20.5c-0.5-19.8-0.6-20.5-2.6-20.8-1.1-0.2-4.3-2.5-6.9-5.2-4.5-4.6-5.3-5-9.7-5-4 0-4.8 0.3-4.8 1.9 0 2.1-1.9 3.1-5.6 3.1-2.1 0-2.4 0.5-2.4 3.4 0 3.5-1.7 5-4.5 4-2.7-1.1-6.5 0.5-6.5 2.7 0 1.4-1 2.5-3 3.2l-3 1.1v15.8c0 15-0.1 15.8-2.1 16.9-2.9 1.5-13.8 0.7-15-1.2-0.5-0.8-0.9-7-0.9-13.9 0-8.7-0.4-13-1.2-13.8-0.7-0.7-1.5-4.8-1.8-9l-0.5-7.7-5.5-0.5-5.5-0.5-0.5-56.8-0.5-56.7z"/>
	</g>
</svg>